<?xml version="1.0" encoding="UTF-8"?>
<svg version="1.1" xmlns="http://www.w3.org/2000/svg" width="100" height="100">
<path d="M0 0 C3.76334424 0.41814936 5.67295676 2.21156068 8.3125 4.8125 C9.03050781 5.49957031 9.74851563 6.18664062 10.48828125 6.89453125 C12 9 12 9 11.8515625 11.19921875 C10.7157333 13.60113278 9.34740334 13.86186505 7 15 C6.70609375 15.61101563 6.4121875 16.22203125 6.109375 16.8515625 C4.8115274 19.36499975 3.3726939 20.59509062 1.1875 22.375 C-2.32619556 25.33828059 -5.17554296 28.38116442 -8 32 C-5.09438132 35.57535348 -2.24189882 38.93620427 1.375 41.8125 C2.24125 42.534375 3.1075 43.25625 4 44 C4 44.66 4 45.32 4 46 C4.5775 46.2475 5.155 46.495 5.75 46.75 C8.3002997 48.16683317 10.01785701 49.87627537 12 52 C10.52278578 55.45201639 8.56205999 57.64961936 5.875 60.25 C5.15054688 60.95640625 4.42609375 61.6628125 3.6796875 62.390625 C3.12539062 62.92171875 2.57109375 63.4528125 2 64 C-2.7149237 60.02611997 -7.26746585 55.92036594 -11.75 51.6875 C-16.96592689 46.79634102 -22.29800265 42.16623753 -27.890625 37.70703125 C-30 36 -30 36 -32 34 C-31.77807559 31.4932629 -31.28704369 30.30170453 -29.546875 28.47265625 C-28.95390625 28.00730469 -28.3609375 27.54195312 -27.75 27.0625 C-23.98415467 24.07148568 -20.68494052 20.71999238 -17.32177734 17.28686523 C-15.48835652 15.41743168 -13.65052114 13.55240964 -11.8125 11.6875 C-10.86987305 10.71973633 -10.86987305 10.71973633 -9.90820312 9.73242188 C-9.30556641 9.12333984 -8.70292969 8.51425781 -8.08203125 7.88671875 C-7.53780518 7.33201904 -6.9935791 6.77731934 -6.43286133 6.20581055 C-5 5 -5 5 -3 5 C-2.690625 4.360625 -2.38125 3.72125 -2.0625 3.0625 C-1 1 -1 1 0 0 Z " fill="#F2F2F2" transform="translate(85,18)"/>
<path d="M0 0 C4.13782214 0.51248256 5.95085585 2.67430982 8.75 5.625 C13.88111112 10.91480528 19.16244432 15.8127175 25 20.3125 C25.66 20.869375 26.32 21.42625 27 22 C27 22.66 27 23.32 27 24 C27.5775 24.2475 28.155 24.495 28.75 24.75 C31.38288682 26.2127149 33.12450669 27.63826769 35 30 C34.77132905 32.62173908 34.223954 33.76566765 32.3984375 35.67578125 C31.39683594 36.48595703 31.39683594 36.48595703 30.375 37.3125 C26.82896957 40.25902169 23.6106653 43.36545881 20.4453125 46.71484375 C19 48 19 48 17 48 C16.731875 48.639375 16.46375 49.27875 16.1875 49.9375 C15 52 15 52 12 53 C11.30570621 54.3191582 10.64204839 55.65463905 10 57 C8.4140625 58.73828125 8.4140625 58.73828125 6.625 60.3125 C6.03976563 60.84488281 5.45453125 61.37726563 4.8515625 61.92578125 C3 63 3 63 1.0390625 62.921875 C-1.6404232 61.71046001 -3.22679679 60.06186337 -5.25 57.9375 C-6.30960937 56.83728516 -6.30960937 56.83728516 -7.390625 55.71484375 C-7.92171875 55.14894531 -8.4528125 54.58304688 -9 54 C-7.40584497 50.08790692 -4.86106668 47.62781914 -1.875 44.6875 C-1.38797607 44.20692139 -0.90095215 43.72634277 -0.39916992 43.23120117 C3.59227141 39.32352841 7.72148341 35.59199244 12 32 C9.1453285 28.07482668 5.90173411 25.0462802 2.23828125 21.9140625 C-0.20226606 19.82703251 -2.60284341 17.69917815 -5 15.5625 C-5.763125 14.88316406 -6.52625 14.20382813 -7.3125 13.50390625 C-7.869375 13.00761719 -8.42625 12.51132812 -9 12 C-7.15014033 8.06048404 -4.92434659 5.21678125 -2 2 C-1.34 2 -0.68 2 0 2 C0 1.34 0 0.68 0 0 Z " fill="#F2F2F2" transform="translate(10,19)"/>
<path d="M0 0 C3.94075673 1.58836919 6.55597376 4.31569252 9.46484375 7.3046875 C9.98003067 7.82507599 10.49521759 8.34546448 11.02601624 8.88162231 C12.66801988 10.54138415 14.30317702 12.20767743 15.9375 13.875 C17.5690799 15.53432376 19.20214055 17.19211806 20.83827209 18.84695435 C21.8540075 19.87480886 22.86705982 20.90532432 23.87693787 21.93893433 C26.08924146 24.18216273 28.29450188 26.22828603 30.78735352 28.16064453 C33 30 33 30 34 33 C30.7 35.97 27.4 38.94 24 42 C20.93157639 40.46578819 19.30671428 39.56967602 16.94140625 37.35546875 C16.39033203 36.84306641 15.83925781 36.33066406 15.27148438 35.80273438 C14.70751953 35.26970703 14.14355469 34.73667969 13.5625 34.1875 C13.00240234 33.66607422 12.44230469 33.14464844 11.86523438 32.60742188 C9.25455285 30.16733331 6.73134227 27.71515343 4.27734375 25.11328125 C2.15129255 22.65989503 2.15129255 22.65989503 -1 23 C-2.53308748 24.39215694 -2.53308748 24.39215694 -4 26.3125 C-7.13986157 30.0735815 -10.460123 33.55562899 -13.9375 37 C-14.43443359 37.49282471 -14.93136719 37.98564941 -15.44335938 38.4934082 C-16.62688819 39.66431547 -17.81314672 40.8324626 -19 42 C-21.4375 41.1875 -21.4375 41.1875 -24 40 C-24.495 38.515 -24.495 38.515 -25 37 C-25.639375 36.690625 -26.27875 36.38125 -26.9375 36.0625 C-29.47802844 34.75374293 -29.85331176 33.54533936 -31 31 C-30.2479126 30.25314941 -29.4958252 29.50629883 -28.72094727 28.73681641 C-25.93603358 25.96997833 -23.15441067 23.1998521 -20.3737793 20.42871094 C-19.16894871 19.22891468 -17.96322288 18.03001674 -16.7565918 16.83203125 C-15.02417648 15.11172077 -13.2949873 13.38822456 -11.56640625 11.6640625 C-11.02472305 11.12754059 -10.48303986 10.59101868 -9.92494202 10.03823853 C-7.11251814 7.28444983 -7.11251814 7.28444983 -5 4 C-4.34 4 -3.68 4 -3 4 C-3 3.34 -3 2.68 -3 2 C-2.01 1.34 -1.02 0.68 0 0 Z " fill="#F2F2F2" transform="translate(48,56)"/>
<path d="M0 0 C2.73107801 1.04551276 4.11628983 2.49069225 6.13842773 4.59838867 C6.87899414 5.35764648 7.61956055 6.1169043 8.38256836 6.89916992 C9.14633789 7.69709961 9.91010742 8.4950293 10.69702148 9.31713867 C12.21452383 10.89452566 13.73646559 12.46765728 15.26342773 14.03588867 C15.93446533 14.73649414 16.60550293 15.43709961 17.296875 16.15893555 C19.13445161 18.03976796 19.13445161 18.03976796 22.13452148 18.81713867 C24.00983707 17.68784506 24.00983707 17.68784506 25.75952148 16.00463867 C26.37053711 15.46194336 26.98155273 14.91924805 27.61108398 14.36010742 C29.23474374 12.87517658 29.23474374 12.87517658 30.13452148 10.81713867 C30.79452148 10.81713867 31.45452148 10.81713867 32.13452148 10.81713867 C32.39491211 10.23577148 32.65530273 9.6544043 32.92358398 9.05541992 C34.21581126 6.6668837 35.62732746 4.95669579 37.50952148 3.00463867 C38.09475586 2.37944336 38.67999023 1.75424805 39.28295898 1.11010742 C41.13452148 -0.18286133 41.13452148 -0.18286133 43.18920898 -0.00317383 C45.94639579 1.15949531 47.93902733 2.80460236 50.13452148 4.81713867 C50.13452148 5.47713867 50.13452148 6.13713867 50.13452148 6.81713867 C51.45452148 7.47713867 52.77452148 8.13713867 54.13452148 8.81713867 C49.73847597 14.2179946 44.91771849 19.07845906 39.96606445 23.96166992 C36.30183545 27.59324842 32.84313108 31.31071777 29.59936523 35.32885742 C27.93183046 37.02307276 26.30124999 37.87123354 24.13452148 38.81713867 C24.13452148 39.47713867 24.13452148 40.13713867 24.13452148 40.81713867 C23.14452148 41.14713867 22.15452148 41.47713867 21.13452148 41.81713867 C19.12840414 40.03193306 17.12964978 38.23955156 15.13452148 36.44213867 C14.56217773 35.93424805 13.98983398 35.42635742 13.40014648 34.90307617 C11.94010871 33.58208962 10.53299991 32.20313068 9.13452148 30.81713867 C9.13452148 30.15713867 9.13452148 29.49713867 9.13452148 28.81713867 C8.55476563 28.56335449 7.97500977 28.30957031 7.37768555 28.0480957 C4.88379925 26.67955253 3.23708312 25.14716098 1.24389648 23.12182617 C0.53491211 22.40639648 -0.17407227 21.6909668 -0.90454102 20.95385742 C-1.63415039 20.20749023 -2.36375977 19.46112305 -3.11547852 18.69213867 C-3.86055664 17.93803711 -4.60563477 17.18393555 -5.37329102 16.40698242 C-7.20861272 14.54813095 -9.03909761 12.68476862 -10.86547852 10.81713867 C-9.39035694 7.74256955 -7.86724222 5.46962287 -5.49047852 3.00463867 C-4.90524414 2.37944336 -4.32000977 1.75424805 -3.71704102 1.11010742 C-1.86547852 -0.18286133 -1.86547852 -0.18286133 0 0 Z " fill="#F4F4F4" transform="translate(26.865478515625,3.182861328125)"/>
<path d="M0 0 C0.33 0.99 0.66 1.98 1 3 C-0.8125 5.6875 -0.8125 5.6875 -3 8 C-3.66 8 -4.32 8 -5 8 C-5 8.66 -5 9.32 -5 10 C-6.64453125 11.5078125 -6.64453125 11.5078125 -8.8125 13.125 C-9.52019531 13.66382813 -10.22789063 14.20265625 -10.95703125 14.7578125 C-13 16 -13 16 -16 16 C-15 14 -15 14 -12.6875 12.6875 C-9.72371705 10.82652001 -8.14081233 8.73138124 -6 6 C-5.34 6 -4.68 6 -4 6 C-3.566875 5.071875 -3.566875 5.071875 -3.125 4.125 C-2 2 -2 2 0 0 Z " fill="#C7C7C7" transform="translate(63,8)"/>
</svg>
