<?xml version="1.0" encoding="UTF-8"?>
<svg version="1.1" xmlns="http://www.w3.org/2000/svg" width="130" height="130">
<path d="M0 0 C1.86684602 -0.27187078 3.74526495 -0.46492524 5.625 -0.625 C6.66914063 -0.74101563 7.71328125 -0.85703125 8.7890625 -0.9765625 C13.33072464 0.4047216 14.2065651 2.89010475 16.40185547 6.95214844 C16.92924316 7.95793945 17.45663086 8.96373047 18 10 C19.25785723 12.19067642 20.52383982 14.3767025 21.796875 16.55859375 C23.45601109 19.44311563 25.11349928 22.32857498 26.77001953 25.21459961 C27.75730052 26.93391218 28.74581988 28.65251345 29.734375 30.37109375 C30.31413086 31.38099365 30.89388672 32.39089355 31.49121094 33.43139648 C32.60241137 35.32313431 33.78301275 37.17451912 35 39 C34.77949927 43.96126644 33.10433491 47.16523334 30 51 C29.01 51 28.02 51 27 51 C25.42378366 48.73655334 24.08312107 46.52958879 22.75 44.125 C22.33032959 43.38991211 21.91065918 42.65482422 21.47827148 41.89746094 C20.52469839 40.2267154 19.57572336 38.5533405 18.63037109 36.87792969 C15.80932782 31.89822647 12.93508686 26.94911899 10.07019043 21.99456787 C7.89436835 18.22766766 5.72728163 14.45572147 3.55883789 10.68457031 C2.50529249 8.87019518 1.39525398 7.08764961 0.23608398 5.33886719 C-0.17182373 4.56704102 -0.57973145 3.79521484 -1 3 C-0.67 2.01 -0.34 1.02 0 0 Z " fill="#E2E2E2" transform="translate(2,67)"/>
<path d="M0 0 C3.61602626 1.43578933 4.90235 2.99442805 6.7421875 6.3828125 C7.49592651 7.74660034 7.49592651 7.74660034 8.26489258 9.13793945 C9.06189575 10.61653442 9.06189575 10.61653442 9.875 12.125 C11.02027003 14.20545505 12.16747376 16.28484655 13.31640625 18.36328125 C13.91340332 19.44689941 14.51040039 20.53051758 15.12548828 21.64697266 C18.85591016 28.31975386 22.77460607 34.88476987 26.68115234 41.45556641 C27.24656738 42.4151123 27.81198242 43.3746582 28.39453125 44.36328125 C28.89831299 45.21188721 29.40209473 46.06049316 29.92114258 46.93481445 C31 49 31 49 31 51 C28.96438894 51.24463575 26.92018638 51.41837613 24.875 51.5625 C23.16957031 51.71912109 23.16957031 51.71912109 21.4296875 51.87890625 C16.83938373 50.70257556 15.93616072 48.77879528 13.58056641 44.81860352 C12.79818604 43.42339478 12.79818604 43.42339478 12 42 C11.3920459 40.97253662 10.7840918 39.94507324 10.15771484 38.88647461 C8.50127798 36.07947 6.8672196 33.26127766 5.24853516 30.43237305 C4.24061108 28.6710935 3.22810209 26.91251211 2.21484375 25.15429688 C-5.02413044 12.55500011 -5.02413044 12.55500011 -4.875 9.125 C-3.86140188 5.50500673 -2.22135458 3.00957717 0 0 Z " fill="#E7E7E7" transform="translate(98,11)"/>
<path d="M0 0 C-1.45268011 3.90071511 -3.27268085 7.4074867 -5.34375 11.015625 C-5.66930374 11.58482666 -5.99485748 12.15402832 -6.33027649 12.74047852 C-7.38324149 14.57908555 -8.44113664 16.41478432 -9.5 18.25 C-10.22620138 19.51136688 -10.95235678 20.77276022 -11.6784668 22.03417969 C-12.76443746 23.91975626 -13.85109221 25.80492479 -14.93962097 27.68902588 C-17.03873094 31.32311134 -19.11645015 34.96815577 -21.17578125 38.625 C-22.05434821 40.16686005 -22.93322374 41.70854433 -23.8125 43.25 C-24.20179687 43.95157227 -24.59109375 44.65314453 -24.9921875 45.37597656 C-26.08203125 47.265625 -26.08203125 47.265625 -28 50 C-28.99 50 -29.98 50 -31 50 C-32.421875 48.4609375 -32.421875 48.4609375 -33.75 46.375 C-34.42289062 45.36566406 -34.42289062 45.36566406 -35.109375 44.3359375 C-36.31667307 41.16942764 -35.75935913 39.2856982 -35 36 C-33.71240234 33.30615234 -33.71240234 33.30615234 -32.0859375 30.5859375 C-31.48910156 29.57660156 -30.89226562 28.56726563 -30.27734375 27.52734375 C-29.64957031 26.48707031 -29.02179688 25.44679688 -28.375 24.375 C-27.46814453 22.84939453 -27.46814453 22.84939453 -26.54296875 21.29296875 C-25.32207928 19.23906301 -24.09649047 17.18794337 -22.86621094 15.13964844 C-20.34007303 10.88976179 -17.90028743 6.59138615 -15.46728516 2.28759766 C-12.07999403 -2.99342028 -5.4049321 -1.31028657 0 0 Z " fill="#E3E3E3" transform="translate(129,68)"/>
<path d="M0 0 C2.95164119 2.74807973 5.2946915 5.32012377 7 9 C6.57403373 12.67433668 5.43959459 15.37580801 3.59375 18.5546875 C3.10108643 19.41030273 2.60842285 20.26591797 2.10083008 21.14746094 C1.30841919 22.49759277 1.30841919 22.49759277 0.5 23.875 C-0.03665283 24.80086914 -0.57330566 25.72673828 -1.1262207 26.68066406 C-2.74140181 29.45941866 -4.36796015 32.23111834 -6 35 C-6.47228027 35.80147461 -6.94456055 36.60294922 -7.43115234 37.42871094 C-14.66279841 49.66279841 -14.66279841 49.66279841 -16 51 C-18.18639453 51.07258946 -20.37500389 51.08373783 -22.5625 51.0625 C-24.35880859 51.04896484 -24.35880859 51.04896484 -26.19140625 51.03515625 C-27.11824219 51.02355469 -28.04507812 51.01195312 -29 51 C-28.36471311 47.93238587 -27.33521873 45.56635567 -25.76953125 42.859375 C-25.30272949 42.04702393 -24.83592773 41.23467285 -24.35498047 40.39770508 C-23.84596191 39.5239624 -23.33694336 38.65021973 -22.8125 37.75 C-22.2880127 36.84209717 -21.76352539 35.93419434 -21.22314453 34.9987793 C-20.08973716 33.03933771 -18.95389778 31.08130132 -17.81591797 29.12451172 C-15.92406273 25.86934053 -14.04176345 22.60876038 -12.16015625 19.34765625 C-10.89893065 17.16898528 -9.63722212 14.99059379 -8.375 12.8125 C-7.77147705 11.76739258 -7.1679541 10.72228516 -6.54614258 9.64550781 C-5.9817749 8.67581055 -5.41740723 7.70611328 -4.8359375 6.70703125 C-4.08642822 5.41502808 -4.08642822 5.41502808 -3.32177734 4.09692383 C-2 2 -2 2 0 0 Z " fill="#E4E4E4" transform="translate(30,11)"/>
<path d="M0 0 C0.96156509 0.01619385 1.92313019 0.0323877 2.91383362 0.04907227 C4.41340355 0.03759155 4.41340355 0.03759155 5.94326782 0.02587891 C8.0538588 0.02044409 10.16458485 0.03514447 12.2749176 0.06860352 C15.49942242 0.11141206 18.71499821 0.06904345 21.93922424 0.01782227 C23.99328031 0.0231098 26.04733083 0.03336185 28.10133362 0.04907227 C29.06087448 0.03287842 30.02041534 0.01668457 31.0090332 0 C34.91871771 0.10901777 37.52723013 0.20780668 40.55619812 2.82299805 C43.48856245 6.51399172 44.57398987 8.27743913 44.57398987 13.11157227 C25.43398987 13.11157227 6.29398987 13.11157227 -13.42601013 13.11157227 C-11.36860177 4.88193883 -8.94179996 0.25020553 0 0 Z " fill="#EDEDED" transform="translate(49.42601013183594,108.888427734375)"/>
<path d="M0 0 C19.47 0 38.94 0 59 0 C56.27134091 8.18597726 56.27134091 8.18597726 53 11 C49.52180845 11.79134406 46.09538861 11.79595654 42.5390625 11.8046875 C41.51573822 11.81895782 40.49241394 11.83322815 39.43807983 11.84793091 C37.27456186 11.8688491 35.11087935 11.87640292 32.94726562 11.87158203 C29.6417512 11.87498277 26.34343566 11.95286721 23.0390625 12.03515625 C20.93491492 12.04623335 18.83073847 12.05288929 16.7265625 12.0546875 C15.7420108 12.0854538 14.75745911 12.11622009 13.74307251 12.1479187 C9.57215701 12.07841024 7.03241058 12.03575386 4.00213623 8.9956665 C0 3.16530923 0 3.16530923 0 0 Z " fill="#F6F6F6" transform="translate(35,8)"/>
<path d="M0 0 C2.41854446 -0.13536629 4.82949783 -0.23420279 7.25 -0.3125 C8.27287109 -0.3753418 8.27287109 -0.3753418 9.31640625 -0.43945312 C11.328125 -0.48828125 11.328125 -0.48828125 15 0 C17.24609375 2.15234375 17.24609375 2.15234375 19 5 C19.96873047 6.41925781 19.96873047 6.41925781 20.95703125 7.8671875 C25.90589452 15.88955533 25.90589452 15.88955533 26.3125 20.6875 C24.50292085 25.25453308 21.91671973 29.0664422 19 33 C14.66983765 29.29280912 12.25514081 24.58594517 9.5 19.6875 C9.02691406 18.85798828 8.55382813 18.02847656 8.06640625 17.17382812 C7.13877955 15.5459846 6.215474 13.91566975 5.296875 12.28271484 C4.46920139 10.82587217 3.62683138 9.37721582 2.765625 7.93994141 C0 3.30824989 0 3.30824989 0 0 Z " fill="#E6E6E6" transform="translate(23,67)"/>
<path d="M0 0 C4.16831581 1.50750548 5.48702245 3.97524883 7.63671875 7.7421875 C7.96162796 8.30696808 8.28653717 8.87174866 8.62129211 9.4536438 C9.30443116 10.64605925 9.98240819 11.84144506 10.65551758 13.03955078 C11.68359485 14.86805444 12.72794936 16.68643948 13.77539062 18.50390625 C19.30213924 28.19067638 19.30213924 28.19067638 20 32 C5.79932802 33.3660979 5.79932802 33.3660979 1.77734375 30.3125 C0.23573892 27.94459498 -0.88203316 25.59289852 -2 23 C-2.99412791 21.41297318 -3.99391502 19.82947379 -5 18.25 C-7.05950882 14.39672544 -7.05950882 14.39672544 -6.625 11.5 C-6.08875 10.675 -5.5525 9.85 -5 9 C-4.11929206 7.39895996 -3.24474209 5.79452346 -2.375 4.1875 C-1.58621838 2.79003431 -0.79550392 1.39365 0 0 Z " fill="#E8E8E8" transform="translate(87,30)"/>
<path d="M0 0 C-2.04247719 11.2235133 -2.04247719 11.2235133 -7 15 C-10.66782881 15.93435206 -14.22545674 16.11726595 -18 16.1875 C-18.97412842 16.22464111 -19.94825684 16.26178223 -20.9519043 16.30004883 C-25.10979525 16.19891382 -27.89919601 16.07741191 -30.953125 13.08837891 C-33.56901118 9.26851842 -35.34152107 5.31194969 -37 1 C-24.6497088 0.10412395 -12.38077633 -0.11522956 0 0 Z " fill="#E7E7E7" transform="translate(83,26)"/>
<path d="M0 0 C3.56310166 1.42371797 4.9275463 2.96571002 6.75 6.3125 C7.17796875 7.07175781 7.6059375 7.83101562 8.046875 8.61328125 C9.17198629 11.43067059 9.43984909 12.98838023 9 16 C7.78355682 18.33670248 6.56634411 20.44054077 5.125 22.625 C4.76019531 23.19734375 4.39539063 23.7696875 4.01953125 24.359375 C2.37738358 26.92709681 0.69065618 29.46401572 -1 32 C-3.7885289 32.22107787 -6.34653181 32.28107535 -9.125 32.1875 C-10.25615234 32.16719727 -10.25615234 32.16719727 -11.41015625 32.14648438 C-13.27374127 32.11109985 -15.13695978 32.05729167 -17 32 C-16.30366493 28.15087941 -14.55336869 25.13332085 -12.65625 21.73828125 C-12.32709595 21.1470195 -11.99794189 20.55575775 -11.65881348 19.94657898 C-10.96499996 18.7023383 -10.26894858 17.45934318 -9.57080078 16.2175293 C-8.49925239 14.31116996 -7.43461217 12.401083 -6.37109375 10.49023438 C-1.15964619 1.15964619 -1.15964619 1.15964619 0 0 Z " fill="#EAEAEA" transform="translate(40,30)"/>
<path d="M0 0 C8.71785888 0.14377279 8.71785888 0.14377279 12.79296875 1.23046875 C11.04338784 6.09041571 8.5554156 10.48553705 6.04296875 14.98046875 C5.37515381 16.18002197 5.37515381 16.18002197 4.69384766 17.40380859 C1.6351423 22.85001266 -1.55646623 28.15529298 -5.20703125 33.23046875 C-7.68493607 31.01805373 -9.72147193 28.69963543 -11.51953125 25.91796875 C-11.86628906 25.38558594 -12.21304688 24.85320312 -12.5703125 24.3046875 C-13.97523387 19.7279191 -12.54382311 15.88554741 -10.4296875 11.7734375 C-9.71683594 10.66613281 -9.00398438 9.55882813 -8.26953125 8.41796875 C-7.90923828 7.84626953 -7.54894531 7.27457031 -7.17773438 6.68554688 C-3.11973849 0.325778 -3.11973849 0.325778 0 0 Z " fill="#E6E6E6" transform="translate(94.20703125,66.76953125)"/>
<path d="M0 0 C1.47146484 0.07927734 1.47146484 0.07927734 2.97265625 0.16015625 C3.96136719 0.15886719 4.95007813 0.15757813 5.96875 0.15625 C13.08744957 0.33927475 13.08744957 0.33927475 16.38671875 3.359375 C16.86882812 4.24238281 17.3509375 5.12539062 17.84765625 6.03515625 C18.2653125 6.67839844 18.68296875 7.32164063 19.11328125 7.984375 C21.84765625 12.81293403 21.84765625 12.81293403 21.84765625 15.03515625 C9.30765625 15.03515625 -3.23234375 15.03515625 -16.15234375 15.03515625 C-10.11099113 -0.06822531 -10.11099113 -0.06822531 0 0 Z " fill="#F2F2F2" transform="translate(62.15234375,87.96484375)"/>
<path d="M0 0 C0.66 0.99 1.32 1.98 2 3 C1.67 3.33 1.34 3.66 1 4 C19.15 4.33 37.3 4.66 56 5 C56 5.33 56 5.66 56 6 C36.86 6 17.72 6 -2 6 C-1 2 -1 2 0 0 Z " fill="#A3A3A3" transform="translate(38,116)"/>
<path d="M0 0 C0.91644287 0.00523682 1.83288574 0.01047363 2.77709961 0.01586914 C3.76645508 0.0190918 4.75581055 0.02231445 5.77514648 0.02563477 C6.81606445 0.03401367 7.85698242 0.04239258 8.92944336 0.05102539 C10.49662109 0.05779297 10.49662109 0.05779297 12.09545898 0.06469727 C14.68600996 0.07652627 17.27644895 0.0930085 19.86694336 0.11352539 C19.86694336 0.44352539 19.86694336 0.77352539 19.86694336 1.11352539 C19.28726807 1.12287109 18.70759277 1.1322168 18.11035156 1.1418457 C15.4658739 1.19576609 12.82312443 1.27936669 10.17944336 1.36352539 C8.81142578 1.38479492 8.81142578 1.38479492 7.41577148 1.40649414 C1.99406063 1.60364726 -1.20541226 1.97916288 -5.13305664 6.11352539 C-2.83983201 0.15114134 -2.83983201 0.15114134 0 0 Z " fill="#B9B9B9" transform="translate(56.133056640625,88.886474609375)"/>
<path d="M0 0 C1.9375 0.75 1.9375 0.75 4 2 C4.75 4.125 4.75 4.125 5 6 C2.69 5.67 0.38 5.34 -2 5 C-1.34 3.35 -0.68 1.7 0 0 Z " fill="#B1B1B1" transform="translate(40,30)"/>
</svg>
