<?xml version="1.0" encoding="UTF-8"?>
<svg version="1.1" xmlns="http://www.w3.org/2000/svg" width="156" height="157">
<path d="M0 0 C4.86479088 2.29971932 7.73361668 5.118559 10 10 C10.90480862 15.13931296 11.21960971 19.83331906 8.6015625 24.484375 C5.624621 28.046305 2.67344021 31.06531196 -2 32 C-7.660293 32.40430664 -11.39130376 32.08914458 -15.86328125 28.5078125 C-19.93927916 24.57067624 -21.50268681 21.58999262 -21.6875 15.875 C-21.26504568 9.29796605 -19.23417544 6.07069919 -14.4375 1.625 C-9.56643525 -0.67768515 -5.29813119 -0.77379561 0 0 Z " fill="#F2F2F2" transform="translate(84,62)"/>
<path d="M0 0 C3.3 0 6.6 0 10 0 C11.49332401 4.18890039 12.46590852 8.25218212 13.25 12.625 C14.52728298 18.90497467 16.70465823 23.93904883 19.890625 29.4765625 C21 32 21 32 20.86328125 34.1640625 C19.35662888 37.36825532 16.77848293 38.87180031 14 41 C4.29902441 29.6655268 -0.35776132 14.85650949 0 0 Z " fill="#E0E0E0" transform="translate(1,81)"/>
<path d="M0 0 C2.16700843 1.57214337 3.96843287 3.34592138 5.79296875 5.30078125 C4.73975126 8.47438363 3.75348364 9.32516449 0.8515625 11.1171875 C-0.34842992 11.71359592 -1.55596074 12.2950107 -2.76953125 12.86328125 C-3.71517944 13.31888428 -3.71517944 13.31888428 -4.67993164 13.78369141 C-14.52214558 18.44122381 -23.30848078 20.49198389 -34.20703125 20.30078125 C-34.20703125 17.33078125 -34.20703125 14.36078125 -34.20703125 11.30078125 C-29.45790326 9.66583555 -24.77369832 8.17970577 -19.89453125 6.98828125 C-14.39899401 5.56408568 -9.74978653 3.11947901 -4.8359375 0.3125 C-2.20703125 -0.69921875 -2.20703125 -0.69921875 0 0 Z " fill="#E1E1E1" transform="translate(115.20703125,134.69921875)"/>
<path d="M0 0 C0 3.3 0 6.6 0 10 C-1.18335938 10.24234375 -2.36671875 10.4846875 -3.5859375 10.734375 C-17.94605162 13.61638754 -17.94605162 13.61638754 -31 20 C-34.85358487 19.74309434 -37.1622086 17.44365371 -40 15 C-39.8828125 13.21875 -39.8828125 13.21875 -39 11 C-27.74241754 3.38359406 -13.51753053 -0.83184803 0 0 Z " fill="#E4E4E4" transform="translate(75,2)"/>
<path d="M0 0 C3.72622417 1.24207472 4.23817276 2.8343882 5.95703125 6.21777344 C6.30121094 6.9296582 6.64539063 7.64154297 7 8.375 C7.35449219 9.10235352 7.70898438 9.82970703 8.07421875 10.57910156 C12.78452524 20.48562905 14.51833626 28.99975277 14 40 C11.03 40 8.06 40 5 40 C3.6022326 36.12925952 2.56815769 32.24940092 1.625 28.25 C-0.04513904 21.44227591 -2.09106722 14.86339918 -6 9 C-5.88995011 5.6985033 -4.73748807 4.71827988 -2.4375 2.25 C-1.633125 1.5075 -0.82875 0.765 0 0 Z " fill="#E2E2E2" transform="translate(140,35)"/>
<path d="M0 0 C1.23556641 0.01740234 1.23556641 0.01740234 2.49609375 0.03515625 C3.32238281 0.04417969 4.14867187 0.05320312 5 0.0625 C5.63808594 0.07410156 6.27617187 0.08570312 6.93359375 0.09765625 C7.75254631 13.99710116 4.29193216 26.22620362 -3.06640625 38.09765625 C-4.05640625 38.75765625 -5.04640625 39.41765625 -6.06640625 40.09765625 C-7.10458088 39.22197852 -8.12155928 38.32112834 -9.12890625 37.41015625 C-9.69738281 36.91128906 -10.26585937 36.41242188 -10.8515625 35.8984375 C-12.06640625 34.09765625 -12.06640625 34.09765625 -11.8984375 31.7578125 C-10.98290411 28.83068462 -9.87875374 26.05070208 -8.69140625 23.22265625 C-6.17809007 16.87399053 -4.81906073 10.7116178 -3.64453125 4.01953125 C-2.87611665 0.13592234 -2.87611665 0.13592234 0 0 Z " fill="#E1E1E1" transform="translate(147.06640625,80.90234375)"/>
<path d="M0 0 C3.64259265 0.58668306 6.42512178 1.61564305 9.6875 3.3125 C17.40137693 6.95751877 25.68066289 8.3617587 34 10 C34 13.3 34 16.6 34 20 C20.00769501 20.8395383 6.25260771 16.21136238 -5 8 C-3.62845496 5.04590299 -2.01136276 2.55991624 0 0 Z " fill="#E3E3E3" transform="translate(41,135)"/>
<path d="M0 0 C2.31 1.65 4.62 3.3 7 5 C6.44176143 9.2240052 5.42693814 12.58790488 3.625 16.4375 C0.9618684 22.56424207 -0.28206418 28.50231017 -1.421875 35.04296875 C-2 38 -2 38 -3 39 C-4.68608966 39.07205511 -6.37500659 39.08386068 -8.0625 39.0625 C-8.98160156 39.05347656 -9.90070312 39.04445312 -10.84765625 39.03515625 C-11.55792969 39.02355469 -12.26820312 39.01195312 -13 39 C-12.73114796 26.09510209 -9.47666348 9.47666348 0 0 Z " fill="#E1E1E1" transform="translate(14,36)"/>
<path d="M0 0 C12.57479954 -1.06515949 26.56923039 2.89215018 37 10 C38.32421875 12.1875 38.32421875 12.1875 39 14 C37.02 15.98 35.04 17.96 33 20 C30.37887191 18.95635817 27.76434617 17.90178389 25.16015625 16.81640625 C18.03458722 13.93203341 11.2420835 12.00620965 3.703125 10.578125 C1 10 1 10 0 9 C-0.07179964 7.48071962 -0.08392007 5.95832518 -0.0625 4.4375 C-0.05347656 3.61121094 -0.04445313 2.78492188 -0.03515625 1.93359375 C-0.02355469 1.29550781 -0.01195313 0.65742187 0 0 Z " fill="#E0E0E0" transform="translate(81,2)"/>
<path d="M0 0 C2.16534204 1.8610237 3.37763569 3.56645354 5 6 C4.67 6.99 4.34 7.98 4 9 C1.234375 10.203125 1.234375 10.203125 -2.25 11.25 C-3.95929688 11.78367187 -3.95929688 11.78367187 -5.703125 12.328125 C-8.95161522 12.99013959 -10.85596692 12.92193451 -14 12 C-14 9.03 -14 6.06 -14 3 C-3.31288344 -0.82822086 -3.31288344 -0.82822086 0 0 Z " fill="#EDEDED" transform="translate(95,114)"/>
<path d="M0 0 C2.97 0 5.94 0 9 0 C9.76557648 1.9638701 10.52493868 3.93062218 11.23828125 5.9140625 C11.81188506 7.48485447 12.45277348 9.03131737 13.125 10.5625 C12.92787692 14.40640013 10.30323806 16.13264452 7.56640625 18.64453125 C7.04949219 19.09183594 6.53257813 19.53914063 6 20 C1.99995681 16.3472995 0.20962766 11.82123891 -0.1875 6.4765625 C-0.1875 4.31680382 -0.10112765 2.1573898 0 0 Z " fill="#E2E2E2" transform="translate(30,81)"/>
<path d="M0 0 C0 3.3 0 6.6 0 10 C-10.05679513 13.7525355 -10.05679513 13.7525355 -14 12 C-16.8125 9.4375 -16.8125 9.4375 -19 7 C-18 4 -18 4 -15.7421875 2.83203125 C-10.27737283 0.88882058 -5.80965828 -0.51641407 0 0 Z " fill="#E2E2E2" transform="translate(75,30)"/>
<path d="M0 0 C2.65848752 0.99418645 3.77544216 1.54166739 5.046875 4.13671875 C6.45964626 9.26193892 7.3468525 13.681595 7 19 C3.7 19 0.4 19 -3 19 C-4.98780683 14.03048293 -5.5862917 10.27662529 -5 5 C-2.5 2 -2.5 2 0 0 Z " fill="#F7F7F7" transform="translate(119,56)"/>
<path d="M0 0 C4.73544283 0.39462024 8.65942958 0.96535762 13 3 C13 6.3 13 9.6 13 13 C5.97047248 12.5464821 0.4150557 10.87940913 -6 8 C-5.67 7.01 -5.34 6.02 -5 5 C-4.34 5 -3.68 5 -3 5 C-2.5359375 4.0409375 -2.5359375 4.0409375 -2.0625 3.0625 C-1 1 -1 1 0 0 Z " fill="#E1E1E1" transform="translate(62,114)"/>
<path d="M0 0 C1.15224028 0.92961422 2.29659176 1.8690125 3.4375 2.8125 C4.39462891 3.59560547 4.39462891 3.59560547 5.37109375 4.39453125 C7 6 7 6 8 9 C7.44140625 11.48046875 7.44140625 11.48046875 6.5625 14.1875 C6.27503906 15.08855469 5.98757812 15.98960938 5.69140625 16.91796875 C5.46324219 17.60503906 5.23507813 18.29210937 5 19 C1.7 19 -1.6 19 -5 19 C-5.6212008 11.29711007 -3.8741903 6.6276327 0 0 Z " fill="#DDDDDD" transform="translate(35,56)"/>
<path d="M0 0 C3.3 0 6.6 0 10 0 C10.36517527 6.57315478 9.13619737 11.79485526 7 18 C3 18 3 18 0.1875 16.125 C-2.61844829 12.11650244 -2.18993044 9.98953299 -1.4921875 5.3046875 C-1 3 -1 3 0 0 Z " fill="#E2E2E2" transform="translate(116,81)"/>
<path d="M0 0 C6.13583124 0.05370531 11.38768414 1.65303155 17 4 C16.39845581 6.82543484 15.7522943 8.40145407 14.1875 10.9375 C11 13 11 13 8 12.6484375 C4.95034363 11.87883082 1.97755879 11.01151519 -1 10 C-1.02689216 8.52093108 -1.04634621 7.04172517 -1.0625 5.5625 C-1.07410156 4.73878906 -1.08570312 3.91507813 -1.09765625 3.06640625 C-1 1 -1 1 0 0 Z " fill="#EBEBEB" transform="translate(82,30)"/>
<path d="M0 0 C1.32 0.66 2.64 1.32 4 2 C3.67 2.99 3.34 3.98 3 5 C2.34 4.34 1.68 3.68 1 3 C-1.29007686 4.27843883 -1.29007686 4.27843883 -3 7 C-3.05898893 10.72702755 -2.58315738 14.32357303 -2 18 C0.64 18 3.28 18 6 18 C6 16.02 6 14.04 6 12 C6.33 12 6.66 12 7 12 C7 14.31 7 16.62 7 19 C3.7 19 0.4 19 -3 19 C-4.98780683 14.03048293 -5.5862917 10.27662529 -5 5 C-2.5 2 -2.5 2 0 0 Z " fill="#999999" transform="translate(119,56)"/>
<path d="M0 0 C-2.31 0.33 -4.62 0.66 -7 1 C-7 3.64 -7 6.28 -7 9 C-1.555 8.505 -1.555 8.505 4 8 C-0.42558274 10.21279137 -3.13894867 10.60155317 -8 11 C-9 10 -9 10 -9.09765625 7.93359375 C-9.08605469 7.10988281 -9.07445313 6.28617187 -9.0625 5.4375 C-9.05347656 4.61121094 -9.04445313 3.78492187 -9.03515625 2.93359375 C-9.02355469 2.29550781 -9.01195313 1.65742187 -9 1 C-5.57367167 -0.61798838 -3.61944899 -1.34053666 0 0 Z " fill="#9E9E9E" transform="translate(90,116)"/>
<path d="M0 0 C1.9609375 0.05078125 1.9609375 0.05078125 4.375 0.3125 C5.16648437 0.39113281 5.95796875 0.46976563 6.7734375 0.55078125 C9 1 9 1 12 3 C8.04 3 4.08 3 0 3 C0 5.31 0 7.62 0 10 C-0.33 10 -0.66 10 -1 10 C-1.02689216 8.52093108 -1.04634621 7.04172517 -1.0625 5.5625 C-1.07410156 4.73878906 -1.08570312 3.91507813 -1.09765625 3.06640625 C-1 1 -1 1 0 0 Z " fill="#989898" transform="translate(82,30)"/>
<path d="M0 0 C1.32 0.66 2.64 1.32 4 2 C3.67 2.99 3.34 3.98 3 5 C2.34 4.34 1.68 3.68 1 3 C-0.65 4.98 -2.3 6.96 -4 9 C-4.8125 7.3125 -4.8125 7.3125 -5 5 C-2.5625 2.25 -2.5625 2.25 0 0 Z " fill="#BFBFBF" transform="translate(119,56)"/>
</svg>
