<?xml version="1.0" encoding="UTF-8"?>
<svg version="1.1" xmlns="http://www.w3.org/2000/svg" width="445" height="561" fill="#008001">
<path d="M0 0 C1.26340714 0.00456207 1.26340714 0.00456207 2.55233765 0.00921631 C14.89985477 0.07525915 26.53869516 0.64332462 38.375 4.4375 C39.0664209 4.64117188 39.7578418 4.84484375 40.47021484 5.0546875 C52.54539751 8.63333756 63.40951053 14.31832472 74.375 20.4375 C74.375 21.0975 74.375 21.7575 74.375 22.4375 C74.95765625 22.55222656 75.5403125 22.66695312 76.140625 22.78515625 C78.54023135 23.48574062 80.10360933 24.41942595 82.125 25.875 C82.73859375 26.30683594 83.3521875 26.73867188 83.984375 27.18359375 C84.44328125 27.59738281 84.9021875 28.01117188 85.375 28.4375 C85.375 29.0975 85.375 29.7575 85.375 30.4375 C85.99375 30.746875 86.6125 31.05625 87.25 31.375 C88.625 32.0625 90 32.75 91.375 33.4375 C91.375 34.0975 91.375 34.7575 91.375 35.4375 C91.94089844 35.67726562 92.50679688 35.91703125 93.08984375 36.1640625 C95.84802711 37.70110143 97.7270728 39.56093118 99.9375 41.8125 C100.70191406 42.58335938 101.46632813 43.35421875 102.25390625 44.1484375 C107.375 49.67506906 107.375 49.67506906 107.375 52.4375 C108.035 52.4375 108.695 52.4375 109.375 52.4375 C113.375 57.84926471 113.375 57.84926471 113.375 60.4375 C114.035 60.4375 114.695 60.4375 115.375 60.4375 C117.41669485 63.34298882 118.375 64.83892046 118.375 68.4375 C119.035 68.4375 119.695 68.4375 120.375 68.4375 C132.36042995 90.11327758 137.55026668 114.8953315 137.61523438 139.51538086 C137.62492983 141.73394422 137.65600967 143.95157544 137.6875 146.16992188 C137.76368503 156.08851703 137.75227802 165.83558388 130.4375 173.375 C129.76847656 174.08527344 129.09945313 174.79554688 128.41015625 175.52734375 C121.50957326 182.00409055 115.09854775 182.90099127 105.79296875 182.75390625 C98.60901978 182.08887783 94.03677014 178.85523287 89.375 173.4375 C83.85610086 166.77729877 83.29675568 161.05235834 82.9453125 152.46875 C82.87157179 150.91143562 82.79733657 149.3541446 82.72265625 147.796875 C82.6101742 145.37972837 82.50104036 142.96261205 82.40087891 140.54492188 C81.7813295 125.85706772 80.13513218 112.74584799 73.375 99.4375 C73.05660156 98.73109375 72.73820312 98.0246875 72.41015625 97.296875 C69.30903001 90.53562122 64.77943828 84.65982675 59.4375 79.5 C58.756875 78.819375 58.07625 78.13875 57.375 77.4375 C57.375 76.7775 57.375 76.1175 57.375 75.4375 C56.82070313 75.18097656 56.26640625 74.92445312 55.6953125 74.66015625 C53.04192407 73.26199029 50.68938073 71.61897518 48.25 69.875 C44.92408252 67.47018334 44.92408252 67.47018334 41.375 65.4375 C41.375 64.7775 41.375 64.1175 41.375 63.4375 C40.6840625 63.32277344 39.993125 63.20804688 39.28125 63.08984375 C35.99266101 62.35167929 33.01851185 61.21486639 29.875 60 C9.39052783 52.62473739 -12.71156057 53.87614005 -32.625 62.4375 C-51.63202973 72.07411731 -66.85735075 88.09674414 -73.625 108.4375 C-74.181875 109.984375 -74.181875 109.984375 -74.75 111.5625 C-78.92897154 125.2934065 -78.78384637 139.31471377 -78.94140625 153.5546875 C-78.96204162 155.1489406 -78.98303945 156.74318904 -79.00437927 158.33743286 C-79.05892188 162.48333912 -79.10862282 166.62928899 -79.15722656 170.77526855 C-79.20794492 175.0259986 -79.26336507 179.27666726 -79.31835938 183.52734375 C-79.42510819 191.83067688 -79.52672907 200.13406222 -79.625 208.4375 C-78.57942019 208.43657821 -77.53384039 208.43565641 -76.45657635 208.43470669 C-50.75215906 208.41228625 -25.04774306 208.3959713 0.65668201 208.38568783 C13.0882636 208.38057984 25.51983864 208.37364511 37.95141602 208.36206055 C48.81477749 208.35194237 59.67813422 208.3456069 70.54150027 208.34341151 C76.26808333 208.34213274 81.99465285 208.33923505 87.72123146 208.33176994 C110.89282086 208.30304427 134.06422921 208.36126815 157.23362482 208.70757401 C159.48673036 208.7396054 161.73990849 208.76692187 163.99313128 208.78923023 C167.10936395 208.82170018 170.22474054 208.87291748 173.34062195 208.92921448 C174.71496047 208.93834175 174.71496047 208.93834175 176.1170634 208.94765341 C181.58491988 209.07194384 185.54041257 209.81341205 190.375 212.4375 C191.5373919 214.7622838 191.52880597 216.17293579 191.57833862 218.76441956 C191.60765032 220.13964751 191.60765032 220.13964751 191.63755417 221.54265785 C191.65387516 222.5592668 191.67019615 223.57587574 191.68701172 224.62329102 C191.70750202 225.702349 191.72799232 226.78140697 191.74910355 227.89316368 C191.81566033 231.5549982 191.87338475 235.21690031 191.9296875 238.87890625 C191.95062344 240.16345766 191.97155937 241.44800907 191.99312973 242.77148628 C192.56073212 277.93061608 192.52710696 313.09308817 192.50356936 348.25580466 C192.49920852 355.53504605 192.50234752 362.81427024 192.5071975 370.09351057 C192.51177877 377.26875354 192.51235687 384.44398922 192.50975883 391.61923319 C192.50823151 395.83904937 192.50790222 400.058854 192.51129532 404.27866936 C192.56518563 481.8812858 192.56518563 481.8812858 177.375 497.4375 C176.715 497.4375 176.055 497.4375 175.375 497.4375 C175.045 498.4275 174.715 499.4175 174.375 500.4375 C173.715 500.4375 173.055 500.4375 172.375 500.4375 C172.375 501.0975 172.375 501.7575 172.375 502.4375 C170.42724829 503.99690555 168.49785024 505.41585438 166.4375 506.8125 C165.54550903 507.42085693 165.54550903 507.42085693 164.63549805 508.04150391 C160.07404634 511.09150876 155.55442019 513.58232586 150.375 515.4375 C149.28058594 515.86482422 149.28058594 515.86482422 148.1640625 516.30078125 C133.34404235 521.49517369 115.4477472 519.58660396 99.97094727 519.58276367 C97.54299875 519.58576137 95.1150507 519.5891653 92.68710327 519.59294128 C86.81344062 519.60081239 80.93978742 519.60399307 75.06612057 519.60455366 C70.28594538 519.60503172 65.50577345 519.60710074 60.72559929 519.61025429 C47.1271997 519.61904083 33.52880795 519.62367649 19.93040551 519.62292381 C19.20015636 519.62288386 18.46990721 519.6228439 17.7175293 519.62280273 C16.98637352 519.62276185 16.25521774 519.62272097 15.50190573 519.62267885 C3.65155111 519.62227235 -8.19877176 519.63184817 -20.0491172 519.6459411 C-32.26175209 519.66034866 -44.47437152 519.66720897 -56.68701512 519.66634732 C-63.52563992 519.66601699 -70.36423136 519.66869195 -77.20284843 519.67952538 C-83.63554957 519.68965195 -90.06819867 519.68925062 -96.50090408 519.68200874 C-98.84972423 519.68096942 -101.19854887 519.68328664 -103.54736137 519.6893692 C-127.80184727 519.74807003 -149.53220232 519.40248589 -168.625 502.4375 C-171.14174742 499.89339663 -173.42469109 497.25664579 -175.625 494.4375 C-176.28242188 493.6640625 -176.93984375 492.890625 -177.6171875 492.09375 C-179.7784883 489.23444155 -181.24947241 486.43995246 -182.75 483.1875 C-183.24757813 482.13046875 -183.74515625 481.0734375 -184.2578125 479.984375 C-186.89439376 473.1443299 -187.95331877 466.27232002 -188.24169922 458.97680664 C-188.27929792 458.10143029 -188.31689663 457.22605394 -188.35563469 456.32415104 C-188.94595764 440.16066551 -188.77012131 423.96598898 -188.7593255 407.79454684 C-188.75675401 402.71964388 -188.75915337 397.64474253 -188.76071167 392.56983948 C-188.76252342 384.02922233 -188.76015729 375.48861387 -188.75537109 366.94799805 C-188.74997067 357.2014773 -188.75166419 347.45497762 -188.7571975 337.70845741 C-188.76180592 329.23947393 -188.76234108 320.77049663 -188.75975883 312.3015123 C-188.75823249 307.28919989 -188.757897 302.2768972 -188.76129532 297.26458549 C-188.76744789 286.19834774 -188.73793581 275.13311768 -188.6591568 264.06715012 C-188.63226998 260.14683835 -188.62044115 256.22678611 -188.61721039 252.30638504 C-188.61141431 247.17355275 -188.57471624 242.04173111 -188.51737952 236.90922558 C-188.50041535 234.95919485 -188.49362064 233.00904606 -188.49757218 231.05894554 C-188.50115715 228.36483555 -188.46759558 225.67359456 -188.42501831 222.97987366 C-188.43452916 222.18524267 -188.44404001 221.39061168 -188.45383906 220.57190096 C-188.37759245 217.63127998 -188.21627341 215.19536648 -186.36584401 212.82357299 C-182.43108457 209.34926452 -178.90716226 208.68950199 -173.83984375 208.6953125 C-172.73353355 208.66907303 -172.73353355 208.66907303 -171.60487366 208.64230347 C-169.25718692 208.59304015 -166.91062463 208.57797842 -164.5625 208.5625 C-163.01362776 208.53072826 -161.46479644 208.49689105 -159.91601562 208.4609375 C-158.39065858 208.43299824 -156.86526647 208.40690122 -155.33984375 208.3828125 C-154.66018051 208.37146271 -153.98051727 208.36011292 -153.28025818 208.34841919 C-146.70166376 208.31015088 -140.1759418 208.87769819 -133.625 209.4375 C-133.63166183 208.48854858 -133.63832367 207.53959717 -133.64518738 206.56188965 C-133.70669457 197.50425895 -133.75130007 188.446672 -133.78043652 179.38887787 C-133.79592061 174.73507306 -133.81683189 170.08144024 -133.85131836 165.42773438 C-134.1565705 123.09269759 -131.58156013 84.61390372 -103.625 50.4375 C-103.14675781 49.84710938 -102.66851562 49.25671875 -102.17578125 48.6484375 C-97.76792062 43.2742891 -97.76792062 43.2742891 -95.625 41.4375 C-94.965 41.4375 -94.305 41.4375 -93.625 41.4375 C-92.965 40.1175 -92.305 38.7975 -91.625 37.4375 C-90.965 37.4375 -90.305 37.4375 -89.625 37.4375 C-89.625 36.7775 -89.625 36.1175 -89.625 35.4375 C-88.965 35.4375 -88.305 35.4375 -87.625 35.4375 C-87.625 34.7775 -87.625 34.1175 -87.625 33.4375 C-74.55173827 21.02169437 -58.41902055 12.66365658 -41.5625 6.6875 C-40.77238525 6.40583984 -39.98227051 6.12417969 -39.16821289 5.83398438 C-36.66784486 4.97814514 -34.1577848 4.19206075 -31.625 3.4375 C-30.20912598 3.01488892 -30.20912598 3.01488892 -28.76464844 2.58374023 C-19.17612991 0.03844365 -9.84684899 -0.07510687 0 0 Z M-23.625 309.4375 C-29.0403019 316.23627319 -31.39236968 323.68948564 -30.625 332.4375 C-28.50584451 342.10725994 -22.95333697 349.9419286 -15.625 356.4375 C-14.965 356.4375 -14.305 356.4375 -13.625 356.4375 C-13.63388245 357.16555344 -13.64276489 357.89360687 -13.6519165 358.64372253 C-13.73215951 365.51451343 -13.79301368 372.38523403 -13.83224869 379.25637341 C-13.85309843 382.78871382 -13.88136679 386.32066613 -13.92675781 389.8527832 C-13.97864825 393.91621567 -13.99796666 397.97924228 -14.015625 402.04296875 C-14.04659271 403.94008858 -14.04659271 403.94008858 -14.07818604 405.87553406 C-14.07863922 407.64680412 -14.07863922 407.64680412 -14.07910156 409.45385742 C-14.08798401 410.49088303 -14.09686646 411.52790863 -14.10601807 412.59635925 C-13.3444776 417.09440996 -10.82020965 419.52515663 -7.28125 422.2265625 C-4.0550956 423.69730936 -1.66188542 423.83729125 1.875 423.8125 C2.9784375 423.82023437 4.081875 423.82796875 5.21875 423.8359375 C10.50356274 423.1687953 14.00952029 420.46890902 17.375 416.4375 C17.94840149 413.69590042 17.94840149 413.69590042 17.82568359 410.64672852 C17.82621231 408.89955284 17.82621231 408.89955284 17.82675171 407.11708069 C17.80915802 405.86285812 17.79156433 404.60863556 17.7734375 403.31640625 C17.77696106 401.34234197 17.78051879 399.36827704 17.78609657 397.39421749 C17.79317946 392.53017237 17.75607232 387.66632834 17.71484375 382.80249023 C17.69317026 380.07128658 17.68749544 377.34087078 17.69815063 374.60960388 C17.70654085 372.03864466 17.68978355 369.46745485 17.64535522 366.89686584 C17.69377136 358.40225197 17.69377136 358.40225197 19.69338989 355.57040405 C21.30664062 354.22045898 21.30664062 354.22045898 24.375 352.4375 C30.74417497 345.98340269 34.05348843 337.45996065 34.53515625 328.4375 C33.96147224 318.36304918 29.45798957 311.3865675 22.375 304.4375 C14.91046102 298.02773284 7.80650045 296.96143254 -1.93359375 297.1328125 C-11.16561764 297.89482082 -17.40518321 302.81913184 -23.625 309.4375 Z " fill="#020202" transform="translate(220.625,20.5625)"/>
<path d="M0 0 C0.66 0.33 1.32 0.66 2 1 C-2.95976517 7.09492269 -8.49976272 12.34463692 -14.328125 17.58203125 C-16.27762766 19.34627416 -18.17066471 21.11428109 -20 23 C-20.66 22.67 -21.32 22.34 -22 22 C-17.25855513 15.95057034 -17.25855513 15.95057034 -15 14 C-14.34 14 -13.68 14 -13 14 C-12.34 12.68 -11.68 11.36 -11 10 C-10.34 10 -9.68 10 -9 10 C-9 9.34 -9 8.68 -9 8 C-8.34 8 -7.68 8 -7 8 C-7 7.34 -7 6.68 -7 6 C-5.46875 4.4921875 -5.46875 4.4921875 -3.5 2.875 C-2.8503125 2.33617187 -2.200625 1.79734375 -1.53125 1.2421875 C-1.0259375 0.83226562 -0.520625 0.42234375 0 0 Z " fill="#3F3F3F" transform="translate(140,48)"/>
<path d="M0 0 C0.33 0.99 0.66 1.98 1 3 C-1.64 5.64 -4.28 8.28 -7 11 C-7.66 10.67 -8.32 10.34 -9 10 C-4.25855513 3.95057034 -4.25855513 3.95057034 -2 2 C-1.34 2 -0.68 2 0 2 C0 1.34 0 0.68 0 0 Z " fill="#5E5E5E" transform="translate(127,60)"/>
<path d="M0 0 C0.33 1.32 0.66 2.64 1 4 C-0.98 5.32 -2.96 6.64 -5 8 C-4.67 6.68 -4.34 5.36 -4 4 C-3.34 4 -2.68 4 -2 4 C-2 3.34 -2 2.68 -2 2 C-1.34 2 -0.68 2 0 2 C0 1.34 0 0.68 0 0 Z " fill="#4D4D4D" transform="translate(133,54)"/>
</svg>
