<?xml version="1.0" encoding="UTF-8"?>
<svg version="1.1" xmlns="http://www.w3.org/2000/svg" width="169" height="169">
<path d="M0 0 C2.28164062 0.34804687 2.28164062 0.34804687 4.609375 0.703125 C4.609375 4.663125 4.609375 8.623125 4.609375 12.703125 C-1.000625 12.703125 -6.610625 12.703125 -12.390625 12.703125 C-13.050625 14.353125 -13.710625 16.003125 -14.390625 17.703125 C-16.07491666 21.06181581 -17.89782997 24.34561573 -19.703125 27.640625 C-20.22712891 28.59976807 -20.75113281 29.55891113 -21.29101562 30.54711914 C-26.20008777 39.4698661 -31.35487162 48.23892777 -36.578125 56.98046875 C-37.05894531 57.79241699 -37.53976563 58.60436523 -38.03515625 59.44091797 C-38.88757553 60.86356153 -39.75763032 62.27593169 -40.65234375 63.67236328 C-43.07324377 67.5532359 -44.18568969 70.15166774 -43.390625 74.703125 C-42.09163117 77.64864371 -40.45328438 80.3408485 -38.765625 83.078125 C-37.75883546 84.76285406 -36.75233967 86.44775869 -35.74609375 88.1328125 C-35.2051709 89.02838867 -34.66424805 89.92396484 -34.10693359 90.84667969 C-31.04848711 95.93683955 -28.06858828 101.072844 -25.078125 106.203125 C-24.50433105 107.18071777 -23.93053711 108.15831055 -23.33935547 109.16552734 C-12.390625 127.86551533 -12.390625 127.86551533 -12.390625 130.703125 C-6.780625 130.703125 -1.170625 130.703125 4.609375 130.703125 C4.609375 134.663125 4.609375 138.623125 4.609375 142.703125 C1.02478798 142.83799659 -2.55473813 142.93718372 -6.140625 143.015625 C-7.66429688 143.0784668 -7.66429688 143.0784668 -9.21875 143.14257812 C-16.72726452 143.26607343 -16.72726452 143.26607343 -19.81640625 140.64453125 C-20.33589844 139.67386719 -20.85539062 138.70320312 -21.390625 137.703125 C-22.09465291 136.56844352 -22.80191772 135.43576656 -23.51171875 134.3046875 C-24.28843367 132.98184491 -25.06027282 131.65613163 -25.828125 130.328125 C-26.25351562 129.59916016 -26.67890625 128.87019531 -27.1171875 128.11914062 C-31.33099156 120.86874138 -35.43957362 113.55854894 -39.55224609 106.25048828 C-43.70566967 98.88071654 -47.9536384 91.57245132 -52.26953125 84.296875 C-52.79377686 83.39775391 -52.79377686 83.39775391 -53.32861328 82.48046875 C-54.05340515 81.26748374 -54.80870524 80.07234325 -55.58935547 78.89453125 C-57.35341232 76.13484283 -58.37973171 74.14611869 -58.4609375 70.84375 C-56.93607778 66.36934411 -54.67631764 62.5063899 -52.265625 58.453125 C-51.16919195 56.57426478 -50.07284163 54.69535628 -48.9765625 52.81640625 C-48.10209473 51.32874756 -48.10209473 51.32874756 -47.20996094 49.81103516 C-44.70986241 45.54020125 -42.25129876 41.24608018 -39.79541016 36.94970703 C-38.52421855 34.74133341 -37.23996674 32.54042697 -35.94287109 30.34716797 C-32.89633172 25.18572668 -30.03825521 20.07391035 -27.578125 14.60546875 C-21.04154107 0.76811481 -15.28218795 -1.64674402 0 0 Z " fill="#E7E7E7" transform="translate(61.390625,12.296875)"/>
<path d="M0 0 C20.47257024 -1.96981145 20.47257024 -1.96981145 25.9921875 2.33203125 C27.68360832 5.1779696 29.04355038 7.97823867 30.22070312 11.07177734 C31.53698834 14.32867603 33.35851103 17.28378714 35.125 20.3125 C35.8795579 21.6616696 36.63206012 23.01199035 37.3828125 24.36328125 C40.51669441 29.95067906 43.76383365 35.47145925 47 41 C48.19938335 43.0598 49.39860472 45.11969433 50.59765625 47.1796875 C52.68514149 50.76274566 54.79455276 54.33033113 56.93359375 57.8828125 C57.76859271 59.29666036 58.60325611 60.71070648 59.4375 62.125 C59.82099609 62.74503906 60.20449219 63.36507812 60.59960938 64.00390625 C63.02643543 68.17080835 63.12661886 70.38341744 62 75 C60.74755859 77.65527344 60.74755859 77.65527344 59.1484375 80.359375 C58.55168213 81.3800708 57.95492676 82.4007666 57.34008789 83.45239258 C56.69160889 84.54060303 56.04312988 85.62881348 55.375 86.75 C54.35589795 88.48607929 53.33681148 90.22216797 52.31867981 91.95881653 C51.25884655 93.76429567 50.19517556 95.56747781 49.13134766 97.37060547 C47.04653465 100.91173478 44.992985 104.47021232 42.94921875 108.03515625 C25.4580455 138.5419545 25.4580455 138.5419545 22 142 C19.86108398 142.24291992 19.86108398 142.24291992 17.24609375 142.23046875 C15.84133789 142.22756836 15.84133789 142.22756836 14.40820312 142.22460938 C13.42787109 142.21236328 12.44753906 142.20011719 11.4375 142.1875 C10.45330078 142.18685547 9.46910156 142.18621094 8.45507812 142.18554688 C1.14017532 142.14017532 1.14017532 142.14017532 0 141 C-0.14310287 137.3308423 -0.04221662 133.67284559 0 130 C5.61 130 11.22 130 17 130 C17.66 128.02 18.32 126.04 19 124 C20.01464844 121.95556641 20.01464844 121.95556641 21.109375 120.1015625 C21.52759521 119.38645508 21.94581543 118.67134766 22.37670898 117.93457031 C23.05648804 116.79133301 23.05648804 116.79133301 23.75 115.625 C24.22445557 114.81643555 24.69891113 114.00787109 25.18774414 113.17480469 C26.22540751 111.40662497 27.26530338 109.63975398 28.30712891 107.87402344 C30.74490961 103.73535103 33.16250885 99.58499207 35.58105469 95.43505859 C36.79551098 93.35144513 38.01096569 91.26841321 39.22753906 89.18603516 C40.33381913 87.29231419 41.43642626 85.39644089 42.53466797 83.49804688 C43.43141748 81.96929963 44.34789031 80.45165051 45.29736328 78.95507812 C47.72385879 75.06672288 48.85306474 72.55337156 48 68 C46.37326811 64.39221417 44.39279316 61.02605294 42.375 57.625 C41.79758057 56.62855469 41.22016113 55.63210937 40.62524414 54.60546875 C38.76211686 51.39651306 36.88124756 48.19835989 35 45 C33.71879381 42.80021153 32.4388409 40.59969264 31.16015625 38.3984375 C28.77933552 34.3030314 26.39173023 30.21175614 23.99609375 26.125 C23.48030762 25.24199219 22.96452148 24.35898437 22.43310547 23.44921875 C21.53084945 21.90723708 20.62423376 20.36779003 19.71142578 18.83203125 C17 14.21987341 17 14.21987341 17 12 C16.443125 12.01160156 15.88625 12.02320313 15.3125 12.03515625 C10.10221657 12.09676433 5.1562049 11.74999344 0 11 C0 7.37 0 3.74 0 0 Z " fill="#E7E7E7" transform="translate(104,13)"/>
<path d="M0 0 C5.97873264 0.11935764 5.97873264 0.11935764 7.08984375 1.23046875 C7.13065158 3.23005239 7.13238731 5.23092129 7.08984375 7.23046875 C4.44245459 8.69109725 3.19536041 9.23046875 0.08984375 9.23046875 C-0.17828125 10.11734375 -0.44640625 11.00421875 -0.72265625 11.91796875 C-1.91015625 15.23046875 -1.91015625 15.23046875 -3.53515625 17.73046875 C-5.35692817 21.04278133 -5.54853899 22.4711037 -4.91015625 26.23046875 C-2.58046054 31.35419815 -0.35147945 35.32296896 4.46484375 38.35546875 C5.76421875 38.78859375 5.76421875 38.78859375 7.08984375 39.23046875 C7.08984375 41.21046875 7.08984375 43.19046875 7.08984375 45.23046875 C3.49227666 46.0930002 0.65515994 46.31733152 -2.91015625 45.23046875 C-6.34251496 41.28616501 -8.55343721 36.85722292 -10.91015625 32.23046875 C-11.75555257 30.91230259 -12.60742358 29.59820029 -13.47265625 28.29296875 C-15.26477758 24.47497114 -14.99515772 23.28271339 -13.91015625 19.23046875 C-12.43960773 16.20371921 -10.7272327 13.34980415 -8.97265625 10.48046875 C-8.51697266 9.71347656 -8.06128906 8.94648437 -7.59179688 8.15625 C-2.90712989 0.350758 -2.90712989 0.350758 0 0 Z " fill="#D6D6D6" transform="translate(116.91015625,60.76953125)"/>
<path d="M0 0 C3.03566353 0.04336662 4.05785931 0.37564498 6.25 2.53125 C8.12437152 5.17545269 9.76457963 7.8748821 11.375 10.6875 C11.97054687 11.64527344 12.56609375 12.60304688 13.1796875 13.58984375 C17.38660283 20.65629831 17.38660283 20.65629831 17.34375 24.46484375 C16.0082547 28.90751965 13.79183114 32.56257926 11.375 36.5 C10.9109375 37.27537109 10.446875 38.05074219 9.96875 38.84960938 C6.57541209 44.48708791 6.57541209 44.48708791 5.375 45.6875 C3.68891034 45.75955511 1.99999341 45.77136068 0.3125 45.75 C-0.60660156 45.74097656 -1.52570312 45.73195312 -2.47265625 45.72265625 C-3.18292969 45.71105469 -3.89320312 45.69945312 -4.625 45.6875 C-4.625 43.7075 -4.625 41.7275 -4.625 39.6875 C-3.078125 39.006875 -3.078125 39.006875 -1.5 38.3125 C3.41161427 35.51588698 6.3814197 30.90457102 8.375 25.6875 C8.12686378 21.40715015 6.21364944 18.12442031 4.125 14.4375 C3.54234375 13.38046875 2.9596875 12.3234375 2.359375 11.234375 C0.59475178 8.47201052 0.59475178 8.47201052 -2.359375 7.828125 C-3.48085938 7.75851563 -3.48085938 7.75851563 -4.625 7.6875 C-4.66754356 5.68795254 -4.66580783 3.68708364 -4.625 1.6875 C-3.625 0.6875 -3.625 0.6875 0 0 Z " fill="#D8D8D8" transform="translate(50.625,60.3125)"/>
</svg>
