<?xml version="1.0" encoding="UTF-8"?>
<svg version="1.1" xmlns="http://www.w3.org/2000/svg" width="140" height="140">
<path d="M0 0 C3.69356766 -1.20237415 6.32310182 -1.33382651 10 0 C13.55431756 4.31805522 15.92873354 9.1566977 18.47363281 14.11767578 C20.2063538 17.38966939 22.05299007 20.58678353 23.9296875 23.77734375 C24.27040787 24.35788513 24.61112823 24.93842651 24.96217346 25.53656006 C25.65203308 26.71133183 26.34218287 27.88593326 27.03262329 29.06036377 C28.68736352 31.87558455 30.3360165 34.69370587 31.97265625 37.51953125 C32.53218994 38.47964111 33.09172363 39.43975098 33.66821289 40.42895508 C34.82955667 42.67095532 35.53765558 44.53428415 36 47 C37.32 46.67 38.64 46.34 40 46 C40.08636719 45.3090625 40.17273438 44.618125 40.26171875 43.90625 C41.16767407 40.33994968 42.86841702 37.57418851 44.8125 34.5 C49.34997903 27.15646074 53.62649988 19.68184345 57.8371582 12.14648438 C63.13765014 2.76032551 63.13765014 2.76032551 66 0 C68.578125 -0.48828125 68.578125 -0.48828125 71.25 -0.3125 C72.14203125 -0.26738281 73.0340625 -0.22226563 73.953125 -0.17578125 C74.62859375 -0.11777344 75.3040625 -0.05976562 76 0 C74.59600315 3.72804349 72.90331712 7.13362434 70.953125 10.60546875 C70.355 11.67216797 69.756875 12.73886719 69.140625 13.83789062 C68.51671875 14.94326172 67.8928125 16.04863281 67.25 17.1875 C66.6415625 18.27353516 66.033125 19.35957031 65.40625 20.47851562 C62.18946124 26.20068794 58.91138266 31.8758887 55.51367188 37.49243164 C52.68255192 42.18250149 49.90919911 46.90697933 47.125 51.625 C46.53203125 52.62917969 45.9390625 53.63335937 45.328125 54.66796875 C43.88510392 57.11179477 42.44240055 59.5558077 41 62 C45.86086174 59.61526954 50.53896699 56.91517473 55.25 54.25 C56.25691895 53.68087891 57.26383789 53.11175781 58.30126953 52.52539062 C66.85702598 47.67567425 75.35981568 42.73792349 83.84082031 37.75878906 C86.55673293 36.16586474 89.27711212 34.58096595 92 33 C92.85368164 32.49984375 93.70736328 31.9996875 94.58691406 31.484375 C95.38581055 31.02546875 96.18470703 30.5665625 97.0078125 30.09375 C98.05799561 29.48563477 98.05799561 29.48563477 99.12939453 28.86523438 C101 28 101 28 104 28 C104.68977986 31.52687056 104.87857654 34.49406125 104 38 C100.87369698 41.15300342 97.12488978 42.94834112 93.1875 44.9375 C90.98806078 46.12719667 88.78884498 47.31730647 86.58984375 48.5078125 C85.48366699 49.08950195 84.37749023 49.67119141 83.23779297 50.27050781 C78.4889442 52.80714216 73.87620559 55.56063016 69.25 58.3125 C67.73778082 59.21018937 66.22241345 60.1026088 64.703125 60.98828125 C64.08083008 61.35477783 63.45853516 61.72127441 62.81738281 62.09887695 C60.8986841 63.05023603 59.09004402 63.55769775 57 64 C57 65.32 57 66.64 57 68 C58.18529297 68.32677734 58.18529297 68.32677734 59.39453125 68.66015625 C64.14356447 70.42496491 68.32189902 72.88581506 72.6875 75.4375 C73.59854492 75.96448486 74.50958984 76.49146973 75.44824219 77.03442383 C77.34685165 78.13331697 79.24413526 79.2345038 81.14013672 80.33789062 C83.94434931 81.96765666 86.75427791 83.58706261 89.56640625 85.203125 C91.29438339 86.19772113 93.02225259 87.19250483 94.75 88.1875 C95.56557373 88.65663818 96.38114746 89.12577637 97.22143555 89.60913086 C97.96820557 90.04104736 98.71497559 90.47296387 99.484375 90.91796875 C100.47002441 91.48680786 100.47002441 91.48680786 101.47558594 92.06713867 C103 93 103 93 104 94 C104.07205511 95.68608966 104.08386068 97.37500659 104.0625 99.0625 C104.05347656 99.98160156 104.04445312 100.90070313 104.03515625 101.84765625 C104.01775391 102.91306641 104.01775391 102.91306641 104 104 C99.65437603 103.05408267 96.08940824 100.98574197 92.25 98.8125 C91.47285645 98.37687744 90.69571289 97.94125488 89.89501953 97.49243164 C82.14632357 93.12706518 74.47298382 88.63182507 66.79980469 84.13549805 C58.58674151 79.32599292 50.31860571 74.62416612 42 70 C44.00175225 74.05084699 46.17854792 77.98978793 48.375 81.9375 C48.81199219 82.72310303 49.24898438 83.50870605 49.69921875 84.31811523 C56.00544296 95.62601903 62.36839379 106.90900693 68.984375 118.0390625 C69.45101562 118.82466553 69.91765625 119.61026855 70.3984375 120.41967773 C71.27964046 121.89827136 72.16487078 123.37447446 73.0546875 124.84790039 C76 129.78215219 76 129.78215219 76 132 C72.51519396 132.55784445 69.47462023 132.68060219 66 132 C64.4284668 130.43554688 64.4284668 130.43554688 63.13671875 128.28125 C62.63624023 127.46277588 62.13576172 126.64430176 61.62011719 125.80102539 C61.08547852 124.87668701 60.55083984 123.95234863 60 123 C59.40606445 121.99380615 58.81212891 120.9876123 58.20019531 119.95092773 C56.2564984 116.6257209 54.34328286 113.28456699 52.4375 109.9375 C51.14592276 107.67498633 49.85298491 105.41324875 48.55859375 103.15234375 C47.95257324 102.09257324 47.34655273 101.03280273 46.72216797 99.94091797 C45.21926384 97.37443327 43.654003 94.8729901 42.03515625 92.37890625 C40 89 40 89 40 86 C38.02 85.505 38.02 85.505 36 85 C35.773125 85.80824219 35.54625 86.61648437 35.3125 87.44921875 C33.67023643 91.89212822 31.41292206 95.749199 29 99.8125 C28.51595703 100.63766113 28.03191406 101.46282227 27.53320312 102.31298828 C26.52722153 104.026362 25.51873291 105.73826609 24.5078125 107.44873047 C23.05201823 109.91198341 21.60295845 112.37905841 20.15625 114.84765625 C15.55028078 122.70153064 15.55028078 122.70153064 13.98754883 125.30102539 C13.10664988 126.81652002 12.3177429 128.38463437 11.54296875 129.95703125 C10 132 10 132 7.51953125 132.48828125 C6.62621094 132.43027344 5.73289063 132.37226563 4.8125 132.3125 C3.91144531 132.26738281 3.01039062 132.22226563 2.08203125 132.17578125 C1.39496094 132.11777344 0.70789063 132.05976563 0 132 C0.59163493 127.92501057 1.91364099 125.03231609 3.9921875 121.4921875 C4.60964844 120.43209473 5.22710937 119.37200195 5.86328125 118.27978516 C6.52714844 117.15620605 7.19101562 116.03262695 7.875 114.875 C8.55929046 113.70532268 9.24287841 112.5352341 9.92578125 111.36474609 C11.2983997 109.01396357 12.67451817 106.66529054 14.05371094 104.31835938 C16.72370589 99.76610507 19.36212202 95.19590742 22 90.625 C25.98468406 83.74103675 29.9860717 76.86695435 34 70 C26.7996244 73.47718789 19.88133537 77.30715287 13 81.375 C10.9025567 82.60453 8.80489197 83.83368235 6.70703125 85.0625 C3.87642536 86.72386051 1.04587906 88.38532015 -1.78375244 90.04833984 C-5.3774399 92.15989596 -8.97471698 94.26509646 -12.5769043 96.36212158 C-14.29040591 97.36210609 -15.99972764 98.36924182 -17.70898438 99.37646484 C-19.27036133 100.28452881 -19.27036133 100.28452881 -20.86328125 101.2109375 C-21.78407471 101.75024902 -22.70486816 102.28956055 -23.65356445 102.84521484 C-26 104 -26 104 -29 104 C-30.20294764 100.30467065 -30.34203077 97.67665789 -29 94 C-24.63567892 90.44131057 -19.77414302 88.03806695 -14.77880859 85.47460938 C-9.51168949 82.67954705 -4.43253103 79.55358775 0.6875 76.5 C2.70832746 75.2954955 4.73287802 74.0972076 6.76171875 72.90625 C7.62756592 72.39384766 8.49341309 71.88144531 9.38549805 71.35351562 C12.19074972 69.90124975 14.98349419 68.92366196 18 68 C18 67.01 18 66.02 18 65 C17.23445801 64.57702637 16.46891602 64.15405273 15.68017578 63.71826172 C12.79054629 62.12056921 9.90182642 60.52125462 7.01367188 58.92089844 C5.77281152 58.23374154 4.53161071 57.547199 3.29003906 56.86132812 C-3.51806412 53.09982362 -10.26887492 49.27520223 -16.91357422 45.22900391 C-18.61934498 44.22422389 -20.38552538 43.32263204 -22.1640625 42.453125 C-24.78961674 41.1695207 -26.87961173 40.02320381 -29 38 C-29.83559449 34.52183796 -29.62284005 31.50174515 -29 28 C-25.30398418 28.58078497 -22.56292492 29.59059581 -19.32421875 31.44921875 C-17.97602051 32.21673462 -17.97602051 32.21673462 -16.60058594 32.99975586 C-15.63926758 33.55671143 -14.67794922 34.11366699 -13.6875 34.6875 C-12.18171387 35.54903687 -12.18171387 35.54903687 -10.64550781 36.42797852 C-2.17870463 41.28424803 6.25315628 46.20273568 14.6652832 51.15307617 C21.04267231 54.89821132 27.48702424 58.49599373 34 62 C29.14788546 53.4409905 24.21528744 44.93129064 19.25 36.4375 C17.4368479 33.32934455 15.62476901 30.22056765 13.81347656 27.11132812 C12.60855116 25.04407324 11.40218018 22.97766022 10.19433594 20.91210938 C8.49802945 18.00764215 6.81042345 15.0982925 5.125 12.1875 C4.60711914 11.30441162 4.08923828 10.42132324 3.55566406 9.51147461 C3.08612305 8.69686768 2.61658203 7.88226074 2.1328125 7.04296875 C1.71918457 6.33164795 1.30555664 5.62032715 0.87939453 4.88745117 C0 3 0 3 0 0 Z " fill="#E2E2E2" transform="translate(33,5)"/>
<path d="M0 0 C0.99 0 1.98 0 3 0 C3.59732819 2.76264289 4 5.16032769 4 8 C1.10067643 5.60490662 0.49831724 3.68754757 0 0 Z " fill="#C4C4C4" transform="translate(33,5)"/>
<path d="M0 0 C2.31 0 4.62 0 7 0 C7 0.33 7 0.66 7 1 C4.69 1 2.38 1 0 1 C0 0.67 0 0.34 0 0 Z " fill="#A1A1A1" transform="translate(100,71)"/>
<path d="M0 0 C0.33 0 0.66 0 1 0 C1 1.65 1 3.3 1 5 C0.67 5 0.34 5 0 5 C0 3.35 0 1.7 0 0 Z " fill="#717171" transform="translate(71,8)"/>
<path d="M0 0 C1 4 1 4 1 4 Z " fill="#727272" transform="translate(71,95)"/>
</svg>
