<?xml version="1.0" encoding="UTF-8"?>
<svg version="1.1" xmlns="http://www.w3.org/2000/svg" width="140" height="140">
<path d="M0 0 C0.66 0 1.32 0 2 0 C2.39678955 0.68811768 2.7935791 1.37623535 3.20239258 2.08520508 C4.39378494 4.15119048 5.58546139 6.21701208 6.77734375 8.28271484 C8.1400869 10.64513876 9.50051484 13.00887582 10.859375 15.37353516 C14.0259718 20.87916897 17.20751605 26.37293898 20.48046875 31.81640625 C20.99440186 32.67838623 21.50833496 33.54036621 22.0378418 34.4284668 C22.99406418 36.02845084 23.96001501 37.62267095 24.93676758 39.21020508 C25.35982178 39.92200928 25.78287598 40.63381348 26.21875 41.3671875 C26.58935547 41.97675293 26.95996094 42.58631836 27.34179688 43.21435547 C28.19478361 45.52843001 27.873095 46.72435471 27 49 C25.328125 50.484375 25.328125 50.484375 23.25 51.75 C22.57453125 52.17796875 21.8990625 52.6059375 21.203125 53.046875 C18.64297145 54.15445916 16.76139417 54.06963416 14 54 C13.64695801 53.37955811 13.29391602 52.75911621 12.93017578 52.11987305 C11.32958086 49.30843676 9.72731003 46.49795913 8.125 43.6875 C7.29162109 42.22280273 7.29162109 42.22280273 6.44140625 40.72851562 C5.90644531 39.79072266 5.37148437 38.85292969 4.8203125 37.88671875 C4.32805176 37.02264404 3.83579102 36.15856934 3.32861328 35.26831055 C2.27874547 33.47589565 1.15225179 31.72837768 0 30 C-0.22705078 26.90551758 -0.22705078 26.90551758 -0.1953125 23.14453125 C-0.1924826 22.48289474 -0.18965271 21.82125824 -0.18673706 21.13957214 C-0.17555918 19.03036263 -0.15045981 16.92158075 -0.125 14.8125 C-0.11496707 13.38086552 -0.10584176 11.94922436 -0.09765625 10.51757812 C-0.07562795 7.01158023 -0.04111485 3.50583187 0 0 Z " fill="#E8E8E8" transform="translate(74,9)"/>
<path d="M0 0 C0.66 0 1.32 0 2 0 C3.7147309 19.98828332 2.77335296 33.55460115 -9.46606445 50.34301758 C-11 52 -11 52 -14 53 C-16.19140625 52.07421875 -16.19140625 52.07421875 -18.5625 50.6875 C-19.34753906 50.23761719 -20.13257813 49.78773437 -20.94140625 49.32421875 C-23 48 -23 48 -25 46 C-24.66862803 41.99592201 -22.22129437 38.5948821 -20.25 35.1875 C-19.44123207 33.77093276 -18.63265023 32.35425927 -17.82421875 30.9375 C-17.15592041 29.77154297 -17.15592041 29.77154297 -16.47412109 28.58203125 C-14.83249409 25.7066011 -13.20616852 22.82284389 -11.58203125 19.9375 C-10.99969727 18.90343018 -10.41736328 17.86936035 -9.81738281 16.80395508 C-8.65891086 14.74665201 -7.50070235 12.68920056 -6.34277344 10.6315918 C-5.80813477 9.68453369 -5.27349609 8.73747559 -4.72265625 7.76171875 C-4.24578369 6.91569092 -3.76891113 6.06966309 -3.27758789 5.19799805 C-2.24823501 3.42707048 -1.13622205 1.70433308 0 0 Z " fill="#E7E7E7" transform="translate(64,9)"/>
<path d="M0 0 C5.31027254 1.46032495 9.46330032 3.98320986 14 7 C12.32754585 11.53951839 10.13422283 15.70654317 7.8125 19.9375 C7.45091797 20.62779297 7.08933594 21.31808594 6.71679688 22.02929688 C2.14403757 30.33267221 -4.6959142 34.72246527 -12.75 39.375 C-13.88115234 40.04982422 -13.88115234 40.04982422 -15.03515625 40.73828125 C-20.61676007 44 -20.61676007 44 -24 44 C-23.43863463 39.50907706 -21.56145513 36.25454227 -19.1875 32.5 C-14.61333575 25.08653587 -10.28252952 17.54851481 -5.98706055 9.97070312 C-5.49761963 9.10896484 -5.00817871 8.24722656 -4.50390625 7.359375 C-4.06892822 6.59077148 -3.6339502 5.82216797 -3.18579102 5.03027344 C-2.18481305 3.31643099 -1.10093845 1.65140768 0 0 Z " fill="#E6E6E6" transform="translate(26,75)"/>
<path d="M0 0 C0.66163651 0.0028299 1.32327301 0.00565979 2.00495911 0.00857544 C4.11416862 0.01975332 6.2229505 0.04485269 8.33203125 0.0703125 C9.76366573 0.08034543 11.19530689 0.08947074 12.62695312 0.09765625 C16.13310903 0.11798179 19.63834255 0.15713259 23.14453125 0.1953125 C23.14453125 5.1453125 23.14453125 10.0953125 23.14453125 15.1953125 C5.98453125 15.1953125 -11.17546875 15.1953125 -28.85546875 15.1953125 C-27.67558129 11.65565013 -27.08994217 11.47832118 -23.92578125 9.78515625 C-23.13042969 9.35267578 -22.33507812 8.92019531 -21.515625 8.47460938 C-20.26072266 7.81041992 -20.26072266 7.81041992 -18.98046875 7.1328125 C-17.33673191 6.24703519 -15.69348283 5.36035201 -14.05078125 4.47265625 C-12.9527417 3.88859009 -12.9527417 3.88859009 -11.83251953 3.29272461 C-7.26058605 0.75495714 -5.35346392 -0.04517691 0 0 Z " fill="#F8F8F8" transform="translate(36.85546875,111.8046875)"/>
<path d="M0 0 C2.27615571 0.00549133 4.55230756 0.03069 6.828125 0.0703125 C9.19507061 0.11005136 11.56402656 0.09532828 13.9296875 0.0078125 C24.34639979 0.0078125 31.34666663 4.37879453 39.77001953 9.97167969 C41.32409121 10.9850009 42.93219333 11.91447201 44.546875 12.828125 C45.20816406 13.25867188 45.86945313 13.68921875 46.55078125 14.1328125 C46.55078125 14.7928125 46.55078125 15.4528125 46.55078125 16.1328125 C39.59074678 16.15808088 32.63072405 16.17564472 25.6706543 16.18774414 C23.30085813 16.19278591 20.9310651 16.19961915 18.5612793 16.20825195 C15.16324086 16.2203244 11.7652434 16.22604221 8.3671875 16.23046875 C7.3005336 16.23563004 6.2338797 16.24079132 5.13490295 16.24610901 C4.15396164 16.24618454 3.17302032 16.24626007 2.16235352 16.24633789 C1.29409439 16.2485585 0.42583527 16.25077911 -0.46873474 16.25306702 C-2.44921875 16.1328125 -2.44921875 16.1328125 -3.44921875 15.1328125 C-3.54831177 12.80121195 -3.57892379 10.46651308 -3.57421875 8.1328125 C-3.57679687 6.8540625 -3.579375 5.5753125 -3.58203125 4.2578125 C-3.40893053 0.18485429 -3.40893053 0.18485429 0 0 Z " fill="#E8E8E8" transform="translate(86.44921875,110.8671875)"/>
<path d="M0 0 C1.4987793 2.20214844 1.4987793 2.20214844 3.07421875 5.109375 C3.65606934 6.16890381 4.23791992 7.22843262 4.83740234 8.32006836 C5.44793457 9.4519458 6.0584668 10.58382324 6.6875 11.75 C7.94180562 14.03896998 9.1982991 16.32674249 10.45703125 18.61328125 C11.06369629 19.71623535 11.67036133 20.81918945 12.29541016 21.95556641 C14.94749646 26.69224877 17.80597929 31.27582136 20.7421875 35.83984375 C22 38 22 38 22 40 C16.40291411 39.10564887 12.27836243 36.57414366 7.4375 33.75 C6.16229492 33.03263672 6.16229492 33.03263672 4.86132812 32.30078125 C-2.42482506 28.08338435 -6.15818433 23.09932757 -10.3125 15.9375 C-10.68439453 15.32583984 -11.05628906 14.71417969 -11.43945312 14.08398438 C-12.86673767 11.62544023 -13.98965389 9.65525358 -14.03515625 6.7734375 C-12.53489227 4.20317392 -10.67926814 3.17934067 -8.125 1.6875 C-7.24070312 1.15511719 -6.35640625 0.62273437 -5.4453125 0.07421875 C-3 -1 -3 -1 0 0 Z " fill="#E6E6E6" transform="translate(116,78)"/>
<path d="M0 0 C0.33 0 0.66 0 1 0 C1 4.95 1 9.9 1 15 C-16.16 15 -33.32 15 -51 15 C-50.67 14.01 -50.34 13.02 -50 12 C-47.9375 11.3125 -47.9375 11.3125 -46 11 C-46 11.66 -46 12.32 -46 13 C-30.82 13.33 -15.64 13.66 0 14 C0 9.38 0 4.76 0 0 Z " fill="#979797" transform="translate(59,112)"/>
<path d="" fill="#707070" transform="translate(0,0)"/>
</svg>
